<svg width="205" height="271" viewBox="0 0 205 271" fill="none" xmlns="http://www.w3.org/2000/svg">
<path fill-rule="evenodd" clip-rule="evenodd" d="M-224.57 -195.371C-223.233 -195.013 -222.179 -194.906 -221.363 -194.823C-220.846 -194.771 -220.425 -194.728 -220.087 -194.638C-220.246 -194.915 -220.436 -195.082 -220.625 -195.25C-220.814 -195.418 -221.003 -195.585 -221.163 -195.862C-220.465 -196.649 -219.858 -197.516 -219.276 -198.349C-218.179 -199.917 -217.168 -201.363 -215.797 -201.913C-213.699 -202.755 -209.769 -201.702 -208.374 -199.924C-206.321 -197.722 -205.154 -194.825 -204.012 -191.989C-203.536 -190.807 -203.064 -189.636 -202.534 -188.531C-200.893 -185.049 -199.332 -181.705 -197.771 -178.362C-196.209 -175.018 -194.648 -171.675 -193.007 -168.193C-186.996 -153.946 -181.102 -139.262 -175.208 -124.578C-174.243 -122.321 -173.28 -120.055 -172.316 -117.783C-166.954 -105.156 -161.53 -92.3803 -155.226 -80.3777C-150.127 -70.587 -144.094 -61.3358 -138.06 -52.0845C-136.049 -49.0008 -134.038 -45.9171 -132.062 -42.8134L-132.061 -42.8131C-127.789 -36.0521 -123.516 -29.2911 -118.573 -23.2863C-116.252 -20.3941 -113.393 -17.8128 -110.555 -15.2507C-106.957 -12.0029 -103.394 -8.78617 -101.006 -5.00659C-96.6882 2.47192 -90.3536 8.03176 -84.0572 13.558C-78.6997 18.2602 -73.3699 22.9382 -69.3338 28.7531C-66.3761 32.6173 -62.1755 35.605 -58.0173 38.5624C-55.8397 40.1112 -53.6738 41.6517 -51.7041 43.3055L-18.628 71.8252C-16.7371 73.5019 -14.4018 74.8297 -12.0664 76.1574C-9.73108 77.4852 -7.39574 78.813 -5.5049 80.4897C7.31732 90.8942 21.816 98.7595 36.2348 106.581C46.0251 111.892 55.7785 117.184 64.9453 123.236C71.5878 127.622 78.6214 131.217 85.6176 134.792C89.9301 136.997 94.2284 139.193 98.4122 141.564C100.692 142.955 102.958 144.394 105.225 145.833C109.758 148.712 114.29 151.591 118.927 154.081C123.882 156.531 123.272 160.779 122.736 164.512L122.736 164.512C122.601 165.45 122.471 166.354 122.435 167.19C122.287 169.49 116.953 173.677 111.83 171.836C108.001 170.403 104.116 169.033 100.216 167.658L100.216 167.658C90.6837 164.297 81.0609 160.904 71.9527 156.471C30.5943 137.901 -7.49621 114.122 -43.1067 86.3271C-85.6413 52.9329 -125.056 16.6304 -156.774 -27.4381C-180.672 -60.5187 -196.616 -97.0843 -208.683 -135.888C-211.852 -146.032 -214.344 -156.405 -216.802 -166.636C-218.057 -171.859 -219.303 -177.046 -220.626 -182.146C-221.284 -184.776 -222.022 -187.11 -222.81 -189.602L-222.81 -189.602L-222.811 -189.604L-222.811 -189.605C-223.375 -191.39 -223.965 -193.256 -224.57 -195.371ZM-134.809 -9.85206C-142.553 -21.8056 -150.439 -33.7972 -158.186 -45.5778L-158.19 -45.5838C-164.022 -54.4521 -169.775 -63.2009 -175.33 -71.7239C-172.547 -61.1497 -145.718 -19.7953 -134.809 -9.85206ZM-92.7825 34.1706C-92.9794 34.4689 -93.1764 34.7671 -93.4532 34.927C-97.8742 30.4662 -102.295 26.0054 -107.27 21.8643C-106.993 21.7045 -106.796 21.4063 -106.599 21.1081L-106.599 21.108C-106.402 20.8098 -106.205 20.5115 -105.929 20.3517C-101.391 24.3758 -96.5329 28.9535 -92.1118 33.4143C-92.3887 33.5741 -92.5856 33.8724 -92.7825 34.1706ZM18.5871 121.579C18.6456 121.361 18.8426 121.062 19.0395 120.764C19.2364 120.466 19.4333 120.168 19.4918 119.949C17.0473 118.592 14.5229 117.097 11.9985 115.601C9.47403 114.106 6.9496 112.61 4.50507 111.253C4.44659 111.472 4.24975 111.77 4.05291 112.068L4.05271 112.068L4.05243 112.068C3.85561 112.367 3.65884 112.665 3.60036 112.883C5.73848 114.07 7.85422 115.34 10.0037 116.631L10.0041 116.631C12.7695 118.292 15.5907 119.986 18.5871 121.579ZM-77.3518 49.0697C-77.6579 49.3387 -77.964 49.6077 -78.2408 49.7676C-79.0172 49.0164 -79.8109 48.2353 -80.6152 47.4437C-83.2762 44.8251 -86.0541 42.0912 -88.7125 39.9414C-88.4357 39.7815 -88.2388 39.4833 -88.0418 39.185C-87.8449 38.8868 -87.648 38.5885 -87.3712 38.4287C-85.4803 40.1054 -83.6987 41.7528 -81.9171 43.4002C-80.1354 45.0477 -78.3536 46.6952 -76.4628 48.3719C-76.7396 48.5317 -77.0457 48.8007 -77.3518 49.0697Z" fill="#007BFC"/>
<path fill-rule="evenodd" clip-rule="evenodd" d="M101.867 222.99C66.0748 215.084 34.7047 197.748 3.2024 180.339L3.20117 180.338C-0.297677 178.405 -3.79815 176.47 -7.30648 174.548C-53.6938 148.545 -93.577 113.99 -129.319 74.4591C-154.301 47.1722 -177.622 18.9263 -197.27 -12.5476C-213.285 -38.3678 -225.541 -65.9889 -233.484 -95.7307C-237.277 -110.622 -241.878 -125.241 -246.493 -139.904C-248.26 -145.52 -250.03 -151.143 -251.757 -156.79C-253.004 -160.868 -249.705 -167.94 -245.073 -169.507C-239.887 -171.394 -237.213 -167.401 -235.412 -163.643C-233.788 -160.454 -232.396 -157.003 -230.987 -153.51L-230.987 -153.509C-230.002 -151.065 -229.008 -148.601 -227.92 -146.19C-225.461 -140.227 -222.942 -134.3 -220.422 -128.373C-215.382 -116.518 -210.342 -104.663 -205.794 -92.5234C-196.887 -68.6162 -184.858 -46.8001 -172.63 -24.6222C-171.03 -21.7196 -169.426 -18.8108 -167.825 -15.8904C-164.826 -10.3131 -160.632 -5.42626 -156.437 -0.539454C-153.641 2.71843 -150.845 5.97632 -148.403 9.4388C-133.401 30.3072 -116.388 48.9066 -98.9379 67.623C-92.0718 74.7241 -84.8549 81.5168 -77.5957 88.3493C-71.2942 94.2803 -64.961 100.241 -58.7978 106.46C-52.5445 112.816 -46.4938 118.181 -38.782 122.588C-34.3297 125.185 -29.5576 128.335 -26.3297 132.009C-19.6396 138.481 -12.3646 142.771 -4.09917 146.858C-1.43633 148.273 1.08026 150.234 3.59687 152.196C6.11349 154.157 8.63007 156.119 11.2929 157.534C12.1847 158.029 13.118 158.5 14.0653 158.979C16.5799 160.248 19.1931 161.567 21.3907 163.516C23.3618 165.264 25.9023 166.37 28.3349 167.428C29.636 167.995 30.9063 168.548 32.0421 169.178C33.7863 170.055 35.5399 170.934 37.2996 171.817C47.6076 176.986 58.1288 182.262 68.246 187.771C68.4132 187.872 68.5789 187.972 68.7434 188.071C71.3561 189.645 73.6755 191.043 77.1821 191.102C79.4833 191.141 81.927 192.645 84.3575 194.14C85.8637 195.068 87.3649 195.991 88.8238 196.561C98.8359 201.116 108.965 205.234 119.094 209.353C122.47 210.725 123.133 216.987 120.536 221.439C118.492 225.572 115.404 226.617 111.038 225.447C108.652 223.871 105.041 223.372 101.867 222.99ZM-202.57 -36.4329C-202.466 -35.9212 -202.39 -35.4173 -202.317 -34.9302C-202.107 -33.5319 -201.918 -32.2722 -201.12 -31.3642L-172.257 12.8757C-172.043 13.2448 -171.726 13.2257 -171.409 13.2067C-171.251 13.1972 -171.092 13.1877 -170.947 13.2267C-181.09 -3.06396 -191.234 -19.3546 -200.941 -35.5282C-201.377 -35.6452 -202.251 -35.8792 -202.57 -36.4329ZM-202.57 -36.4329C-207.334 -46.6013 -211.98 -57.2064 -216.627 -67.8115L-216.627 -67.8118L-216.627 -67.8121L-216.627 -67.8125L-216.627 -67.8128C-216.904 -67.6529 -217.152 -67.6023 -217.399 -67.5516C-217.647 -67.5009 -217.895 -67.4503 -218.171 -67.2904C-217.822 -66.4931 -217.483 -65.6562 -217.137 -64.8004L-217.137 -64.8002L-217.137 -64.8L-217.136 -64.7996C-216.331 -62.81 -215.484 -60.7182 -214.367 -58.7826C-212.977 -56.156 -211.639 -53.5433 -210.313 -50.9526L-210.312 -50.9508L-210.31 -50.947L-210.309 -50.9454C-207.782 -46.0086 -205.295 -41.152 -202.57 -36.4329ZM-72.1746 121.166C-72.3355 120.813 -72.5072 120.435 -72.7337 120.043C-66.566 124.971 -60.3983 129.9 -53.2402 134.626C-48.6156 137.773 -44.0083 140.984 -39.3931 144.2C-27.021 152.823 -14.5921 161.485 -1.62126 169.051C10.0468 176.19 22.21 182.24 34.316 188.262C40.5666 191.371 46.8019 194.473 52.9458 197.712C53.7607 198.165 54.5463 198.726 55.3319 199.288C56.1174 199.849 56.903 200.411 57.7179 200.863C57.5808 201.375 57.334 201.696 57.1296 201.963L57.1294 201.963C56.985 202.151 56.8616 202.312 56.8132 202.493C53.0934 200.654 49.4383 198.927 45.8295 197.221L45.8289 197.221L45.8286 197.221C41.419 195.137 37.0784 193.086 32.7733 190.903C16.7962 182.41 1.25575 174.034 -14.1677 165.221C-34.9168 153.577 -53.9736 139.11 -71.1353 122.811C-71.6237 122.378 -71.8813 121.812 -72.1746 121.166ZM-72.7337 120.043C-79.8986 116.783 -85.0627 111.423 -90.3094 105.977C-92.3942 103.813 -94.4921 101.636 -96.7338 99.5711C-96.4569 99.4113 -96.2893 99.2222 -96.1216 99.0331C-95.9539 98.8441 -95.7862 98.655 -95.5094 98.4951C-88.0631 105.639 -80.6167 112.782 -72.7337 120.043ZM-124.336 71.5821C-123.782 71.2624 -123.229 70.9428 -123.112 70.5061C-126.004 67.1599 -128.86 63.8236 -131.703 60.5019C-138.694 52.3353 -145.609 44.2574 -152.803 36.3411C-153.08 36.5009 -153.248 36.69 -153.415 36.8791C-153.583 37.0681 -153.751 37.2572 -154.027 37.4171C-144.343 48.4363 -134.34 60.0092 -124.336 71.5821ZM60.3065 203.429L60.6576 202.119L60.6587 202.119C68.2844 205.099 75.9101 208.078 83.9724 211.174C83.4188 211.494 83.1847 212.367 83.0677 212.804C79.2547 211.314 75.471 209.715 71.6872 208.116C67.9034 206.517 64.1196 204.919 60.3065 203.429Z" fill="#007BFC"/>
<path fill-rule="evenodd" clip-rule="evenodd" d="M-281.133 -137.984L-284.712 -140.347C-284.469 -139.551 -284.262 -138.819 -284.069 -138.134L-284.068 -138.131L-284.068 -138.13C-283.269 -135.302 -282.694 -133.264 -280.705 -130.849C-277.731 -121.861 -274.538 -112.815 -271.346 -103.77C-268.154 -94.7238 -264.961 -85.678 -261.987 -76.6907C-247.276 -32.031 -228.807 10.8277 -203.373 50.4042C-165.645 108.72 -118.323 157.437 -60.7394 195.8C-32.6609 215.024 -3.6777 232.619 27.3489 246.08C39.4273 251.657 52.5274 255.167 65.6276 258.677C67.8109 259.262 72.3574 256.268 73.496 253.765C74.9858 249.952 74.7288 245.671 69.2861 243.277C58.7203 239.042 47.9519 233.816 37.7372 228.271C32.4115 225.44 27.3119 222.201 22.2124 218.963C17.1129 215.724 12.0134 212.486 6.68766 209.655C3.91756 208.285 0.740944 207.648 -2.36767 207.024C-3.89678 206.717 -5.40943 206.413 -6.84918 206.028C-7.75612 205.785 -8.77642 205.686 -9.80794 205.586C-13.2463 205.252 -16.8094 204.907 -16.7129 199.172C-16.8872 198.321 -18.1167 197.533 -19.2164 196.827L-19.2182 196.826L-19.2214 196.824C-19.3987 196.711 -19.5727 196.599 -19.7382 196.49C-24.486 193.316 -29.302 190.22 -34.122 187.121C-50.6597 176.489 -67.244 165.826 -81.2752 151.92C-83.3259 149.966 -85.6028 148.42 -87.8796 146.874C-90.1565 145.328 -92.4333 143.782 -94.484 141.828C-98.7308 137.882 -102.485 133.652 -106.24 129.422L-106.24 129.421C-108.118 127.306 -109.995 125.191 -111.934 123.112C-114.506 120.366 -117.083 117.636 -119.654 114.912L-119.656 114.911L-119.657 114.909C-130.546 103.373 -141.344 91.9342 -151.341 79.791C-174.779 51.9818 -193.787 21.6152 -209.357 -11.106C-220.23 -34.2128 -230.738 -57.3943 -241.226 -80.5336L-241.227 -80.5346L-241.228 -80.5369L-241.23 -80.5418L-241.231 -80.5441C-248 -95.4788 -254.762 -110.396 -261.608 -125.264C-262.49 -127.216 -263.309 -129.203 -264.128 -131.191C-265.767 -135.166 -267.406 -139.142 -269.537 -142.833C-271.775 -146.709 -274.598 -148.401 -277.632 -144.066C-278.808 -142.739 -279.828 -140.651 -280.75 -138.764C-280.88 -138.499 -281.008 -138.238 -281.133 -137.984ZM-145.035 115.646C-108.568 157.711 -65.1604 191.339 -15.3654 216.85C-63.702 189.39 -107.11 155.762 -145.035 115.646ZM-174.695 79.6175C-174.972 79.7774 -175.14 79.9664 -175.307 80.1555C-175.475 80.3446 -175.643 80.5337 -175.92 80.6935C-173.07 84.0311 -170.359 87.4485 -167.647 90.866L-167.647 90.8666L-167.646 90.8676C-164.935 94.2849 -162.224 97.7022 -159.374 101.04C-159.097 100.88 -158.93 100.691 -158.762 100.502C-158.594 100.313 -158.427 100.123 -158.15 99.9636C-163.85 93.2881 -169.549 86.6127 -174.695 79.6175ZM-209.216 29.4158C-207.267 32.9505 -205.317 36.4853 -203.474 39.9917C-207.179 32.9444 -211.315 25.7838 -215.567 19.0557L-215.013 18.7361C-213.153 22.2765 -211.185 25.8461 -209.216 29.4158Z" fill="#007BFC"/>
</svg>
