<svg width="366" height="281" viewBox="0 0 366 281" fill="none" xmlns="http://www.w3.org/2000/svg">
<path fill-rule="evenodd" clip-rule="evenodd" d="M441.623 270.468C440.238 270.468 439.193 270.638 438.383 270.77C437.871 270.853 437.453 270.921 437.102 270.921C437.328 271.147 437.554 271.26 437.78 271.373C438.006 271.486 438.232 271.599 438.459 271.825C437.988 272.765 437.627 273.76 437.28 274.715C436.626 276.514 436.023 278.172 434.842 279.058C433.034 280.414 428.965 280.414 427.157 279.058C424.604 277.462 422.727 274.966 420.89 272.523C420.124 271.504 419.365 270.495 418.567 269.564C416.081 266.626 413.707 263.8 411.334 260.975C408.961 258.149 406.587 255.324 404.101 252.385C394.607 240.179 385.114 227.521 375.62 214.863C374.104 212.933 372.587 210.993 371.068 209.049C362.621 198.239 354.075 187.303 344.879 177.341C337.42 169.204 329.198 161.829 320.975 154.455C318.235 151.996 315.494 149.538 312.782 147.052L312.781 147.052C306.905 141.627 301.028 136.202 294.699 131.681C291.708 129.488 288.278 127.735 284.874 125.995C280.559 123.789 276.284 121.604 272.999 118.571C266.893 112.465 259.335 108.734 251.823 105.026C245.431 101.87 239.072 98.7314 233.668 94.1592C229.811 91.1922 224.981 89.3935 220.199 87.613C217.695 86.6806 215.204 85.7532 212.873 84.6656L173.543 65.6784C171.282 64.5482 168.683 63.8701 166.083 63.192C163.484 62.5139 160.884 61.8358 158.624 60.7056C143.546 53.9743 127.505 50.1295 111.554 46.306C100.722 43.7098 89.9318 41.1234 79.5109 37.6498C71.9596 35.1326 64.2352 33.4807 56.5519 31.8375C51.8159 30.8246 47.0954 29.815 42.4407 28.6083C39.8789 27.8548 37.3171 27.0511 34.7553 26.2474C29.6318 24.64 24.5084 23.0327 19.3849 21.8271C13.9646 20.7431 13.4545 16.4818 13.0063 12.7373L13.0063 12.737C12.8938 11.797 12.7852 10.8896 12.6038 10.0732C12.1517 7.8128 16.2204 2.3879 21.6453 2.83997C25.7142 3.23374 29.8212 3.55129 33.9442 3.87007L33.9445 3.87009C44.022 4.64926 54.195 5.43582 64.1404 7.36072C108.896 14.5939 151.843 27.7041 193.434 45.335C243.162 66.5826 290.63 91.4467 332.673 125.804C364.318 151.573 389.182 182.766 410.882 217.124C416.568 226.102 421.66 235.476 426.682 244.723C429.246 249.443 431.792 254.131 434.39 258.714C435.707 261.085 437.023 263.148 438.43 265.351L438.43 265.352L438.431 265.353L438.431 265.354C439.438 266.932 440.491 268.582 441.623 270.468ZM306.905 114.503C317.478 124.045 328.199 133.587 338.731 142.961L338.736 142.966C346.665 150.022 354.486 156.984 362.058 163.779C356.633 154.285 320.015 121.284 306.905 114.503ZM254.916 82.8573C255.029 82.5182 255.142 82.1792 255.368 81.9531C260.793 85.1177 266.218 88.2822 272.095 90.9946C271.869 91.2206 271.756 91.5597 271.643 91.8987L271.643 91.8988C271.53 92.2378 271.417 92.5769 271.191 92.8029C265.766 90.0905 259.889 86.926 254.464 83.7614C254.69 83.5354 254.803 83.1963 254.916 82.8573ZM124.718 27.252C124.718 27.478 124.605 27.8171 124.492 28.1562C124.379 28.4952 124.266 28.8343 124.266 29.0603C126.979 29.7384 129.804 30.5296 132.63 31.3207C135.455 32.1118 138.281 32.9029 140.993 33.5811C140.993 33.3551 141.106 33.0162 141.219 32.6773L141.219 32.6769L141.219 32.6765C141.332 32.3376 141.445 31.9987 141.445 31.7728C139.073 31.1796 136.7 30.5001 134.29 29.8096L134.289 29.8095C131.188 28.9213 128.025 28.0151 124.718 27.252ZM236.155 72.4596C236.381 72.1206 236.607 71.7815 236.833 71.5555C237.777 72.0801 238.746 72.6292 239.728 73.1856C242.976 75.0263 246.367 76.948 249.491 78.3366C249.265 78.5626 249.152 78.9017 249.039 79.2407C248.926 79.5798 248.813 79.9188 248.587 80.1449C246.327 79.0147 244.179 77.8845 242.032 76.7544C239.885 75.6242 237.737 74.494 235.477 73.3638C235.703 73.1377 235.929 72.7987 236.155 72.4596Z" fill="#007BFC"/>
<path fill-rule="evenodd" clip-rule="evenodd" d="M18.0287 -49.1487C54.6478 -50.7762 89.436 -42.1501 124.371 -33.4876L124.372 -33.4873C128.252 -32.5252 132.134 -31.5626 136.02 -30.6136C187.557 -17.5034 235.025 5.5524 279.78 34.4852C310.973 54.3765 340.81 75.6241 367.935 100.94C390.087 121.736 409.074 145.244 424.444 171.916C431.963 185.318 440.19 198.248 448.443 211.218C451.604 216.185 454.768 221.157 457.898 226.165C460.158 229.782 458.802 237.467 454.733 240.179C450.213 243.344 446.596 240.179 443.883 237.015C441.49 234.355 439.252 231.382 436.987 228.372L436.987 228.372C435.402 226.266 433.804 224.143 432.13 222.096C428.212 216.973 424.243 211.9 420.275 206.826C412.339 196.68 404.402 186.533 396.868 175.985C382.077 155.197 364.811 137.238 347.259 118.981C344.962 116.591 342.66 114.197 340.358 111.79C336.018 107.179 330.702 103.544 325.386 99.9095C321.841 97.4864 318.297 95.0633 315.042 92.3508C295.151 76.0761 273.903 62.5139 252.204 48.9516C243.734 43.8696 235.004 39.1762 226.224 34.4554C218.602 30.3573 210.942 26.2387 203.38 21.8271C195.694 17.3064 188.461 13.6898 179.872 11.4294C174.899 10.0732 169.474 8.26486 165.405 5.5524C157.268 1.03165 149.13 -1.22872 140.089 -3.03703C137.151 -3.71514 134.212 -4.95835 131.274 -6.20155C128.335 -7.44476 125.397 -8.68796 122.458 -9.36608C121.469 -9.61347 120.445 -9.82702 119.406 -10.0438C116.649 -10.6192 113.783 -11.2171 111.156 -12.5306C108.8 -13.7088 106.06 -14.1193 103.436 -14.5124C102.033 -14.7227 100.663 -14.928 99.4022 -15.2431C97.4904 -15.6386 95.5691 -16.0341 93.6409 -16.4311C82.3463 -18.7562 70.8181 -21.1294 59.6196 -23.8325C59.4322 -23.886 59.2463 -23.9396 59.0617 -23.9928C56.1306 -24.8374 53.5284 -25.5872 50.1261 -24.7366C47.8932 -24.1784 45.1435 -24.9987 42.4087 -25.8145C40.7138 -26.3201 39.0247 -26.824 37.468 -26.997C26.6181 -28.8053 15.7684 -30.1615 4.91855 -31.5178C1.30194 -31.9698 -0.958436 -37.8468 0.397796 -42.8196C1.30194 -47.3404 4.01437 -49.1487 8.53513 -49.1487C11.2476 -48.2445 14.8642 -48.6966 18.0287 -49.1487ZM379.237 122.64C379.003 122.173 378.8 121.706 378.603 121.254C378.039 119.958 377.53 118.79 376.524 118.119L337.194 82.8572C336.892 82.5559 336.591 82.6563 336.289 82.7568C336.139 82.807 335.988 82.8572 335.837 82.8572C349.852 95.9674 363.866 109.078 377.428 122.188C377.88 122.188 378.785 122.188 379.237 122.64ZM379.237 122.64C386.469 131.229 393.702 140.27 400.935 149.311L400.936 149.311L400.936 149.312L400.936 149.312L400.936 149.312C401.162 149.086 401.388 148.973 401.614 148.86C401.84 148.747 402.066 148.634 402.292 148.408C401.749 147.728 401.205 147.008 400.649 146.271L400.649 146.271L400.648 146.27L400.648 146.27C399.355 144.557 397.996 142.755 396.415 141.175C394.393 138.997 392.425 136.82 390.473 134.661L390.472 134.659L390.469 134.656L390.468 134.655C386.749 130.54 383.09 126.493 379.237 122.64ZM212.494 4.1595C212.741 4.45971 213.005 4.78001 213.325 5.10031C206.092 1.93578 198.859 -1.22874 190.721 -3.9412C185.44 -5.78354 180.159 -7.69261 174.868 -9.60497C160.686 -14.7314 146.439 -19.8815 131.952 -23.8325C118.833 -27.7083 105.519 -30.4044 92.2666 -33.0878C85.4243 -34.4733 78.5987 -35.8554 71.8255 -37.3948C70.9214 -37.6208 70.0172 -37.9599 69.1131 -38.2989C68.2089 -38.638 67.3048 -38.977 66.4006 -39.2031C66.4006 -39.7327 66.5558 -40.1072 66.6843 -40.4175L66.6844 -40.4177C66.7752 -40.637 66.8527 -40.8242 66.8527 -41.0114C70.9218 -40.1975 74.8993 -39.4753 78.8265 -38.7622L78.8271 -38.7621L78.8275 -38.762C83.6261 -37.8907 88.3496 -37.0329 93.0731 -36.0385C110.704 -31.9699 127.883 -27.9012 145.062 -23.3804C168.118 -17.5034 190.269 -8.46195 211.065 2.83993C211.649 3.13186 212.044 3.61229 212.494 4.1595ZM213.325 5.10031C221.09 6.39439 227.465 10.2352 233.942 14.1375C236.516 15.6881 239.106 17.2484 241.806 18.6626C241.58 18.8886 241.467 19.1146 241.354 19.3407C241.241 19.5667 241.128 19.7927 240.902 20.0188C231.86 15.046 222.819 10.0731 213.325 5.10031ZM275.712 38.5539C275.26 39.006 274.807 39.458 274.807 39.9101C278.467 42.3936 282.09 44.8772 285.696 47.3498C294.562 53.4288 303.332 59.4418 312.33 65.2263C312.556 65.0003 312.669 64.7743 312.782 64.5482C312.895 64.3222 313.008 64.0961 313.234 63.8701C301.028 55.7328 288.37 47.1433 275.712 38.5539ZM63.2361 -41.0113L63.2361 -39.6551L63.2349 -39.6552C55.098 -40.5593 46.961 -41.4634 38.372 -42.3675C38.8241 -42.8196 38.8241 -43.7237 38.8241 -44.1758C42.8927 -43.7237 46.9614 -43.1586 51.03 -42.5935C55.0987 -42.0285 59.1674 -41.4634 63.2361 -41.0113Z" fill="#007BFC"/>
<path fill-rule="evenodd" clip-rule="evenodd" d="M481.406 200.397L485.474 201.753C485.034 201.048 484.644 200.394 484.28 199.782L484.278 199.779L484.278 199.779C482.774 197.253 481.692 195.434 479.145 193.616C473.946 185.704 468.522 177.793 463.097 169.882C457.672 161.97 452.247 154.059 447.048 146.148C421.28 106.817 392.347 70.1991 357.537 38.5539C306.001 -8.00987 247.683 -42.8197 182.132 -64.9713C150.035 -76.2732 117.485 -85.7668 84.0317 -90.7396C70.9215 -93 57.3593 -93 43.797 -93C41.5366 -93 37.92 -88.9313 37.468 -86.2189C37.0159 -82.1502 38.3721 -78.0815 44.2491 -77.1774C55.551 -75.8211 67.3049 -73.5608 78.6068 -70.8483C84.4838 -69.4921 90.2477 -67.6838 96.0117 -65.8755C101.776 -64.0672 107.54 -62.2589 113.417 -60.9027C116.447 -60.2966 119.68 -60.503 122.844 -60.705C124.401 -60.8044 125.94 -60.9027 127.431 -60.9027C128.37 -60.9027 129.381 -61.0712 130.403 -61.2416C133.811 -61.8095 137.342 -62.398 138.733 -56.834C139.122 -56.0565 140.513 -55.6133 141.758 -55.2169L141.76 -55.2162L141.764 -55.2151C141.964 -55.1511 142.161 -55.0884 142.349 -55.0257C147.757 -53.1892 153.21 -51.4449 158.668 -49.6991C177.394 -43.7093 196.173 -37.7026 213.325 -27.9012C215.812 -26.5449 218.411 -25.6408 221.01 -24.7367C223.61 -23.8325 226.209 -22.9283 228.696 -21.5721C233.819 -18.8597 238.541 -15.7455 243.262 -12.6312L243.263 -12.6311C245.623 -11.074 247.984 -9.5168 250.395 -8.00988C253.591 -6.02365 256.786 -4.05393 259.975 -2.0881L259.977 -2.08693L259.978 -2.08576C273.482 6.23861 286.873 14.4933 299.672 23.6354C329.508 44.4308 355.729 68.8429 379.237 96.4195C395.72 115.925 411.869 135.597 427.989 155.233L427.99 155.234L427.991 155.236L427.995 155.24L427.997 155.242C438.401 167.916 448.793 180.574 459.254 193.164C460.61 194.821 461.916 196.529 463.222 198.237C465.834 201.653 468.446 205.068 471.46 208.082C474.625 211.247 477.789 212.151 479.597 207.178C480.39 205.592 480.835 203.311 481.238 201.25C481.294 200.96 481.35 200.675 481.406 200.397ZM284.301 -9.36614C238.189 -40.5593 187.557 -61.8069 132.856 -73.5608C186.653 -59.5465 237.285 -38.2989 284.301 -9.36614ZM322.275 17.7584C322.501 17.5323 322.614 17.3063 322.727 17.0802C322.84 16.8542 322.953 16.6282 323.179 16.4021C319.563 13.9159 316.06 11.3166 312.556 8.71732L312.556 8.71686L312.555 8.7161C309.051 6.11693 305.548 3.51776 301.932 1.03159C301.706 1.25761 301.593 1.48365 301.48 1.70969C301.367 1.93573 301.254 2.16177 301.028 2.38781C308.261 7.36063 315.494 12.3335 322.275 17.7584ZM368.613 57.3149C365.815 54.4051 363.017 51.4953 360.329 48.5856C365.732 54.4338 371.58 60.2799 377.428 65.6783L376.976 66.1304C374.264 63.1919 371.438 60.2534 368.613 57.3149Z" fill="#007BFC"/>
</svg>
