<svg width="974" height="154" viewBox="0 0 974 154" fill="none" xmlns="http://www.w3.org/2000/svg">
<path d="M40.9563 79.8H103.356V147H87.7563V130.2H85.3563C83.0896 136.067 79.0896 140.8 73.3563 144.4C67.6229 148 60.9563 149.8 53.3563 149.8C38.2896 149.8 26.4229 144.933 17.7563 135.2C9.22292 125.467 4.95625 111.267 4.95625 92.6V61.4C4.95625 43.2667 9.28958 29.2 17.9563 19.2C26.6229 9.19999 38.6896 4.19999 54.1563 4.19999C62.1563 4.19999 69.2229 5.53333 75.3563 8.2C81.4896 10.7333 86.6229 14.3333 90.7563 19C94.8896 23.5333 98.0229 28.9333 100.156 35.2C102.29 41.3333 103.356 47.9333 103.356 55V57.4H86.5563V55C86.5563 50.4667 85.8896 46.0667 84.5563 41.8C83.3563 37.5333 81.4229 33.8 78.7563 30.6C76.2229 27.2667 72.8896 24.6667 68.7563 22.8C64.7563 20.8 59.8896 19.8 54.1563 19.8C43.3563 19.8 35.2229 23.7333 29.7563 31.6C24.4229 39.4667 21.7563 49.8 21.7563 62.6V91.4C21.7563 105.133 24.4229 115.733 29.7563 123.2C35.2229 130.533 43.4896 134.2 54.5563 134.2C64.5563 134.2 72.3563 131 77.9563 124.6C83.6896 118.2 86.5563 109.267 86.5563 97.8V95.4H40.9563V79.8ZM205.017 130.2H202.617C199.417 136.867 194.951 141.8 189.217 145C183.617 148.2 177.684 149.8 171.417 149.8C164.884 149.8 158.817 148.733 153.217 146.6C147.617 144.333 142.684 141.067 138.417 136.8C134.284 132.4 131.017 127.067 128.617 120.8C126.217 114.533 125.017 107.267 125.017 99V95.8C125.017 87.6667 126.217 80.4667 128.617 74.2C131.017 67.9333 134.284 62.6667 138.417 58.4C142.684 54 147.617 50.6667 153.217 48.4C158.817 46.1333 164.751 45 171.017 45C177.817 45 183.951 46.5333 189.417 49.6C195.017 52.5333 199.417 57.1333 202.617 63.4H205.017V47.8H220.617V126.6C220.617 130.6 222.417 132.6 226.017 132.6H231.017V147H220.417C215.884 147 212.151 145.533 209.217 142.6C206.417 139.667 205.017 135.933 205.017 131.4V130.2ZM173.017 135C177.684 135 181.951 134.133 185.817 132.4C189.817 130.667 193.217 128.2 196.017 125C198.817 121.8 201.017 118 202.617 113.6C204.217 109.067 205.017 104.067 205.017 98.6V96.2C205.017 90.8667 204.217 86 202.617 81.6C201.017 77.0667 198.751 73.2 195.817 70C193.017 66.8 189.617 64.3333 185.617 62.6C181.751 60.7333 177.551 59.8 173.017 59.8C168.351 59.8 164.084 60.6667 160.217 62.4C156.351 64.1333 152.951 66.6 150.017 69.8C147.217 72.8667 145.017 76.6667 143.417 81.2C141.817 85.6 141.017 90.4667 141.017 95.8V99C141.017 110.333 143.951 119.2 149.817 125.6C155.817 131.867 163.551 135 173.017 135ZM350.878 147H335.278V75.8C335.278 71.1333 334.211 67.3333 332.078 64.4C329.945 61.3333 326.545 59.8 321.878 59.8C317.478 59.8 313.878 61.4667 311.078 64.8C308.411 68 307.078 73 307.078 79.8V147H291.478V75C291.478 70.6 290.278 67 287.878 64.2C285.478 61.2667 282.278 59.8 278.278 59.8C273.478 59.8 269.745 61.5333 267.078 65C264.545 68.4667 263.278 73 263.278 78.6V147H247.678V47.8H263.278V58.6H265.678C267.411 53.9333 269.945 50.5333 273.278 48.4C276.611 46.1333 280.545 45 285.078 45C289.878 45 293.811 46.2667 296.878 48.8C300.078 51.3333 302.278 54.6 303.478 58.6H305.878C310.411 49.5333 317.611 45 327.478 45C334.945 45 340.678 47.4 344.678 52.2C348.811 56.8667 350.878 63 350.878 70.6V147ZM389.339 102.2C389.739 112.067 392.806 120 398.539 126C404.272 132 412.272 135 422.539 135C427.206 135 431.272 134.467 434.739 133.4C438.206 132.333 441.139 130.867 443.539 129C446.072 127.133 448.072 125 449.539 122.6C451.139 120.067 452.406 117.4 453.339 114.6L468.139 118.6C465.339 127.8 460.139 135.333 452.539 141.2C445.072 146.933 434.939 149.8 422.139 149.8C415.072 149.8 408.539 148.6 402.539 146.2C396.672 143.667 391.606 140.133 387.339 135.6C383.072 131.067 379.739 125.667 377.339 119.4C374.939 113.133 373.739 106.2 373.739 98.6V93.8C373.739 86.8667 374.939 80.4 377.339 74.4C379.872 68.4 383.339 63.2667 387.739 59C392.139 54.6 397.272 51.2 403.139 48.8C409.139 46.2667 415.606 45 422.539 45C430.672 45 437.672 46.5333 443.539 49.6C449.539 52.5333 454.406 56.2 458.139 60.6C462.006 65 464.806 69.8 466.539 75C468.406 80.2 469.339 85 469.339 89.4V102.2H389.339ZM422.539 59.8C418.139 59.8 414.006 60.5333 410.139 62C406.406 63.3333 403.072 65.2667 400.139 67.8C397.339 70.3333 395.006 73.3333 393.139 76.8C391.406 80.1333 390.272 83.8 389.739 87.8H453.739C453.472 83.5333 452.406 79.6667 450.539 76.2C448.806 72.7333 446.472 69.8 443.539 67.4C440.739 65 437.472 63.1333 433.739 61.8C430.139 60.4667 426.406 59.8 422.539 59.8ZM502 6.99999H588V22.6H518.8V69H586.8V84.6H518.8V147H502V6.99999ZM622.861 132.6H658.861V21.4H624.061V6.99999H674.461V132.6H710.461V147H622.861V132.6ZM838.922 98.6C838.922 106.867 837.522 114.2 834.722 120.6C832.055 126.867 828.455 132.2 823.922 136.6C819.389 140.867 814.055 144.133 807.922 146.4C801.922 148.667 795.655 149.8 789.122 149.8C782.455 149.8 776.122 148.667 770.122 146.4C764.122 144.133 758.855 140.867 754.322 136.6C749.789 132.2 746.122 126.867 743.322 120.6C740.655 114.2 739.322 106.867 739.322 98.6V96.2C739.322 88.0667 740.655 80.8667 743.322 74.6C746.122 68.2 749.789 62.8 754.322 58.4C758.989 54 764.322 50.6667 770.322 48.4C776.322 46.1333 782.589 45 789.122 45C795.655 45 801.922 46.1333 807.922 48.4C813.922 50.6667 819.189 54 823.722 58.4C828.389 62.8 832.055 68.2 834.722 74.6C837.522 80.8667 838.922 88.0667 838.922 96.2V98.6ZM789.122 135C793.922 135 798.322 134.2 802.322 132.6C806.455 130.867 810.055 128.4 813.122 125.2C816.189 122 818.589 118.2 820.322 113.8C822.055 109.267 822.922 104.2 822.922 98.6V96.2C822.922 90.8667 822.055 86 820.322 81.6C818.589 77.0667 816.189 73.2 813.122 70C810.055 66.8 806.455 64.3333 802.322 62.6C798.189 60.7333 793.789 59.8 789.122 59.8C784.455 59.8 780.055 60.7333 775.922 62.6C771.789 64.3333 768.189 66.8 765.122 70C762.055 73.2 759.655 77.0667 757.922 81.6C756.189 86 755.322 90.8667 755.322 96.2V98.6C755.322 104.2 756.189 109.267 757.922 113.8C759.655 118.2 762.055 122 765.122 125.2C768.189 128.4 771.722 130.867 775.722 132.6C779.855 134.2 784.322 135 789.122 135ZM953.583 147H924.783L912.783 55H910.383L898.383 147H869.583L853.983 47.8H869.983L883.183 139.8H885.583L897.183 47.8H925.983L937.583 139.8H939.983L953.183 47.8H969.183L953.583 147Z" fill="black"/>
<path d="M40.9563 79.8V75.8H36.9563V79.8H40.9563ZM103.356 79.8H107.356V75.8H103.356V79.8ZM103.356 147V151H107.356V147H103.356ZM87.7563 147H83.7563V151H87.7563V147ZM87.7563 130.2H91.7563V126.2H87.7563V130.2ZM85.3563 130.2V126.2H82.6135L81.6251 128.758L85.3563 130.2ZM73.3563 144.4L75.4833 147.788L75.4833 147.788L73.3563 144.4ZM17.7563 135.2L14.7485 137.837L14.7586 137.849L14.7689 137.86L17.7563 135.2ZM17.9563 19.2L14.9335 16.5803L14.9335 16.5803L17.9563 19.2ZM75.3563 8.2L73.7613 11.8683L73.7951 11.883L73.8292 11.897L75.3563 8.2ZM90.7563 19L87.7619 21.6521L87.781 21.6737L87.8004 21.695L90.7563 19ZM100.156 35.2L96.3697 36.4891L96.3739 36.5016L96.3783 36.5141L100.156 35.2ZM103.356 57.4V61.4H107.356V57.4H103.356ZM86.5563 57.4H82.5563V61.4H86.5563V57.4ZM84.5563 41.8L80.7056 42.883L80.7212 42.9383L80.7383 42.9931L84.5563 41.8ZM78.7563 30.6L75.5716 33.0203L75.6259 33.0918L75.6834 33.1607L78.7563 30.6ZM68.7563 22.8L66.9674 26.3777L67.038 26.413L67.1099 26.4455L68.7563 22.8ZM29.7563 31.6L26.4715 29.3174L26.4583 29.3363L26.4454 29.3554L29.7563 31.6ZM29.7563 123.2L26.5013 125.525L26.525 125.558L26.5493 125.591L29.7563 123.2ZM77.9563 124.6L74.9769 121.931L74.9613 121.948L74.9459 121.966L77.9563 124.6ZM86.5563 95.4H90.5563V91.4H86.5563V95.4ZM40.9563 95.4H36.9563V99.4H40.9563V95.4ZM40.9563 83.8H103.356V75.8H40.9563V83.8ZM99.3562 79.8V147H107.356V79.8H99.3562ZM103.356 143H87.7563V151H103.356V143ZM91.7563 147V130.2H83.7563V147H91.7563ZM87.7563 126.2H85.3563V134.2H87.7563V126.2ZM81.6251 128.758C79.6936 133.758 76.2912 137.834 71.2292 141.012L75.4833 147.788C81.888 143.766 86.4856 138.376 89.0874 131.642L81.6251 128.758ZM71.2292 141.012C66.2091 144.165 60.2987 145.8 53.3563 145.8V153.8C61.6138 153.8 69.0368 151.835 75.4833 147.788L71.2292 141.012ZM53.3563 145.8C39.2344 145.8 28.5297 141.284 20.7436 132.54L14.7689 137.86C24.3161 148.582 37.3448 153.8 53.3563 153.8V145.8ZM20.764 132.563C13.1025 123.824 8.95625 110.719 8.95625 92.6H0.956251C0.956251 111.815 5.34334 127.109 14.7485 137.837L20.764 132.563ZM8.95625 92.6V61.4H0.956251V92.6H8.95625ZM8.95625 61.4C8.95625 43.872 13.1426 30.8617 20.979 21.8197L14.9335 16.5803C5.43657 27.5383 0.956251 42.6613 0.956251 61.4H8.95625ZM20.979 21.8197C28.7548 12.8476 39.6333 8.19999 54.1563 8.19999V0.199991C37.7459 0.199991 24.491 5.55238 14.9335 16.5803L20.979 21.8197ZM54.1563 8.19999C61.7132 8.19999 68.2199 9.45896 73.7613 11.8683L76.9512 4.53172C70.2259 1.6077 62.5993 0.199991 54.1563 0.199991V8.19999ZM73.8292 11.897C79.4374 14.2135 84.0577 17.4699 87.7619 21.6521L93.7506 16.3478C89.1882 11.1967 83.5417 7.25317 76.8833 4.50295L73.8292 11.897ZM87.8004 21.695C91.5346 25.7905 94.3994 30.7015 96.3697 36.4891L103.943 33.9109C101.646 27.1652 98.2446 21.2762 93.7121 16.305L87.8004 21.695ZM96.3783 36.5141C98.3522 42.1892 99.3562 48.3413 99.3562 55H107.356C107.356 47.5254 106.227 40.4775 103.934 33.8859L96.3783 36.5141ZM99.3562 55V57.4H107.356V55H99.3562ZM103.356 53.4H86.5563V61.4H103.356V53.4ZM90.5563 57.4V55H82.5563V57.4H90.5563ZM90.5563 55C90.5563 50.0678 89.8299 45.2653 88.3742 40.6069L80.7383 42.9931C81.9493 46.8681 82.5563 50.8655 82.5563 55H90.5563ZM88.4069 40.717C87.0644 35.9438 84.8789 31.699 81.8291 28.0393L75.6834 33.1607C77.967 35.901 79.6481 39.1228 80.7056 42.883L88.4069 40.717ZM81.9409 28.1797C78.9717 24.2728 75.0908 21.2718 70.4026 19.1545L67.1099 26.4455C70.6883 28.0615 73.4742 30.2605 75.5716 33.0203L81.9409 28.1797ZM70.5451 19.2223C65.8556 16.8775 60.3409 15.8 54.1563 15.8V23.8C59.4383 23.8 63.6569 24.7225 66.9674 26.3777L70.5451 19.2223ZM54.1563 15.8C42.2401 15.8 32.79 20.2248 26.4715 29.3174L33.041 33.8826C37.6558 27.2418 44.4724 23.8 54.1563 23.8V15.8ZM26.4454 29.3554C20.5316 38.0783 17.7563 49.2712 17.7563 62.6H25.7563C25.7563 50.3288 28.3143 40.855 33.0671 33.8446L26.4454 29.3554ZM17.7563 62.6V91.4H25.7563V62.6H17.7563ZM17.7563 91.4C17.7563 105.575 20.4969 117.119 26.5013 125.525L33.0112 120.875C28.349 114.348 25.7563 104.691 25.7563 91.4H17.7563ZM26.5493 125.591C32.9326 134.154 42.524 138.2 54.5563 138.2V130.2C44.4551 130.2 37.5132 126.913 32.9632 120.809L26.5493 125.591ZM54.5563 138.2C65.4863 138.2 74.4713 134.657 80.9666 127.234L74.9459 121.966C70.2412 127.343 63.6262 130.2 54.5563 130.2V138.2ZM80.9356 127.269C87.5197 119.919 90.5563 109.917 90.5563 97.8H82.5563C82.5563 108.616 79.8595 116.481 74.9769 121.931L80.9356 127.269ZM90.5563 97.8V95.4H82.5563V97.8H90.5563ZM86.5563 91.4H40.9563V99.4H86.5563V91.4ZM44.9563 95.4V79.8H36.9563V95.4H44.9563ZM205.017 130.2H209.017V126.2H205.017V130.2ZM202.617 130.2V126.2H200.1L199.011 128.469L202.617 130.2ZM189.217 145L187.268 141.507L187.25 141.517L187.233 141.527L189.217 145ZM153.217 146.6L151.716 150.308L151.755 150.323L151.793 150.338L153.217 146.6ZM138.417 136.8L135.502 139.539L135.545 139.584L135.589 139.628L138.417 136.8ZM128.617 120.8L132.353 119.369L132.353 119.369L128.617 120.8ZM128.617 74.2L124.882 72.7694L124.882 72.7694L128.617 74.2ZM138.417 58.4L135.546 55.6154L135.544 55.6168L138.417 58.4ZM189.417 49.6L187.46 53.0886L187.51 53.1167L187.561 53.1433L189.417 49.6ZM202.617 63.4L199.055 65.2191L200.168 67.4H202.617V63.4ZM205.017 63.4V67.4H209.017V63.4H205.017ZM205.017 47.8V43.8H201.017V47.8H205.017ZM220.617 47.8H224.617V43.8H220.617V47.8ZM231.017 132.6H235.017V128.6H231.017V132.6ZM231.017 147V151H235.017V147H231.017ZM209.217 142.6L206.324 145.362L206.356 145.396L206.389 145.428L209.217 142.6ZM185.817 132.4L184.227 128.73L184.204 128.74L184.181 128.75L185.817 132.4ZM196.017 125L193.007 122.366L193.007 122.366L196.017 125ZM202.617 113.6L206.376 114.967L206.383 114.949L206.389 114.931L202.617 113.6ZM202.617 81.6L198.845 82.9313L198.852 82.9492L198.858 82.967L202.617 81.6ZM195.817 70L192.807 72.634L192.837 72.6688L192.869 72.7029L195.817 70ZM185.617 62.6L183.878 66.2022L183.952 66.2377L184.027 66.2702L185.617 62.6ZM160.217 62.4L161.853 66.05L161.853 66.05L160.217 62.4ZM150.017 69.8L147.069 67.0971L147.063 67.1029L150.017 69.8ZM143.417 81.2L147.176 82.567L147.183 82.5492L147.189 82.5313L143.417 81.2ZM149.817 125.6L146.869 128.303L146.898 128.335L146.928 128.366L149.817 125.6ZM205.017 126.2H202.617V134.2H205.017V126.2ZM199.011 128.469C196.121 134.489 192.191 138.759 187.268 141.507L191.167 148.493C197.71 144.841 202.713 139.244 206.223 131.931L199.011 128.469ZM187.233 141.527C182.219 144.392 176.967 145.8 171.417 145.8V153.8C178.401 153.8 185.016 152.008 191.202 148.473L187.233 141.527ZM171.417 145.8C165.326 145.8 159.747 144.807 154.641 142.862L151.793 150.338C157.887 152.66 164.441 153.8 171.417 153.8V145.8ZM154.718 142.892C149.614 140.826 145.133 137.859 141.246 133.972L135.589 139.628C140.235 144.275 145.62 147.84 151.716 150.308L154.718 142.892ZM141.333 134.061C137.593 130.08 134.588 125.205 132.353 119.369L124.882 122.231C127.447 128.928 130.975 134.72 135.502 139.539L141.333 134.061ZM132.353 119.369C130.163 113.652 129.017 106.887 129.017 99H121.017C121.017 107.646 122.272 115.415 124.882 122.231L132.353 119.369ZM129.017 99V95.8H121.017V99H129.017ZM129.017 95.8C129.017 88.055 130.16 81.3551 132.353 75.6306L124.882 72.7694C122.274 79.5782 121.017 87.2784 121.017 95.8H129.017ZM132.353 75.6306C134.584 69.8031 137.578 65.0146 141.29 61.1832L135.544 55.6168C130.989 60.3187 127.45 66.0635 124.882 72.7694L132.353 75.6306ZM141.289 61.1846C145.174 57.1784 149.642 54.1624 154.718 52.1078L151.716 44.6922C145.593 47.1709 140.194 50.8216 135.546 55.6154L141.289 61.1846ZM154.718 52.1078C159.823 50.0413 165.245 49 171.017 49V41C164.256 41 157.811 42.2253 151.716 44.6922L154.718 52.1078ZM171.017 49C177.192 49 182.641 50.3853 187.46 53.0886L191.374 46.1114C185.26 42.6813 178.443 41 171.017 41V49ZM187.561 53.1433C192.345 55.6494 196.187 59.6028 199.055 65.2191L206.18 61.5809C202.647 54.6638 197.689 49.4173 191.273 46.0567L187.561 53.1433ZM202.617 67.4H205.017V59.4H202.617V67.4ZM209.017 63.4V47.8H201.017V63.4H209.017ZM205.017 51.8H220.617V43.8H205.017V51.8ZM216.617 47.8V126.6H224.617V47.8H216.617ZM216.617 126.6C216.617 129.119 217.175 131.754 218.994 133.776C220.885 135.877 223.485 136.6 226.017 136.6V128.6C225.477 128.6 225.179 128.524 225.044 128.474C224.98 128.45 224.951 128.432 224.945 128.428C224.94 128.425 224.941 128.425 224.94 128.424C224.939 128.423 224.923 128.405 224.896 128.356C224.869 128.305 224.828 128.216 224.786 128.076C224.699 127.785 224.617 127.313 224.617 126.6H216.617ZM226.017 136.6H231.017V128.6H226.017V136.6ZM227.017 132.6V147H235.017V132.6H227.017ZM231.017 143H220.417V151H231.017V143ZM220.417 143C216.836 143 214.156 141.881 212.046 139.772L206.389 145.428C210.146 149.185 214.931 151 220.417 151V143ZM212.111 139.838C210.107 137.739 209.017 135.036 209.017 131.4H201.017C201.017 136.83 202.727 141.594 206.324 145.362L212.111 139.838ZM209.017 131.4V130.2H201.017V131.4H209.017ZM173.017 139C178.19 139 183.022 138.037 187.453 136.05L184.181 128.75C180.879 130.23 177.177 131 173.017 131V139ZM187.408 136.07C191.938 134.107 195.827 131.292 199.027 127.634L193.007 122.366C190.608 125.108 187.697 127.226 184.227 128.73L187.408 136.07ZM199.027 127.634C202.185 124.026 204.624 119.785 206.376 114.967L198.858 112.233C197.41 116.215 195.45 119.574 193.007 122.366L199.027 127.634ZM206.389 114.931C208.159 109.916 209.017 104.459 209.017 98.6H201.017C201.017 103.675 200.275 108.217 198.845 112.269L206.389 114.931ZM209.017 98.6V96.2H201.017V98.6H209.017ZM209.017 96.2C209.017 90.4645 208.156 85.1276 206.376 80.233L198.858 82.967C200.278 86.8724 201.017 91.2688 201.017 96.2H209.017ZM206.389 80.2687C204.629 75.2822 202.1 70.9349 198.766 67.2971L192.869 72.7029C195.401 75.4651 197.405 78.8512 198.845 82.9313L206.389 80.2687ZM198.827 67.366C195.627 63.7081 191.738 60.8928 187.208 58.9298L184.027 66.2702C187.497 67.7738 190.408 69.8919 192.807 72.634L198.827 67.366ZM187.356 58.9978C182.917 56.8547 178.118 55.8 173.017 55.8V63.8C176.983 63.8 180.584 64.6119 183.878 66.2022L187.356 58.9978ZM173.017 55.8C167.844 55.8 163.012 56.7635 158.581 58.75L161.853 66.05C165.155 64.5698 168.857 63.8 173.017 63.8V55.8ZM158.581 58.75C154.205 60.7118 150.361 63.5053 147.069 67.0971L152.966 72.5029C155.54 69.6947 158.497 67.5549 161.853 66.05L158.581 58.75ZM147.063 67.1029C143.849 70.6229 141.396 74.9088 139.645 79.8687L147.189 82.5313C148.639 78.4245 150.585 75.1104 152.971 72.4971L147.063 67.1029ZM139.658 79.833C137.878 84.7276 137.017 90.0645 137.017 95.8H145.017C145.017 90.8688 145.756 86.4724 147.176 82.567L139.658 79.833ZM137.017 95.8V99H145.017V95.8H137.017ZM137.017 99C137.017 111.02 140.14 120.962 146.869 128.303L152.766 122.897C147.761 117.438 145.017 109.647 145.017 99H137.017ZM146.928 128.366C153.755 135.497 162.57 139 173.017 139V131C164.531 131 157.879 128.236 152.706 122.834L146.928 128.366ZM350.878 147V151H354.878V147H350.878ZM335.278 147H331.278V151H335.278V147ZM332.078 64.4L328.795 66.6843L328.818 66.7187L328.843 66.7527L332.078 64.4ZM311.078 64.8L308.015 62.2272L308.01 62.2332L308.005 62.2393L311.078 64.8ZM307.078 147V151H311.078V147H307.078ZM291.478 147H287.478V151H291.478V147ZM287.878 64.2L284.782 66.7329L284.811 66.7684L284.841 66.8032L287.878 64.2ZM267.078 65L263.908 62.5612L263.878 62.6002L263.849 62.6399L267.078 65ZM263.278 147V151H267.278V147H263.278ZM247.678 147H243.678V151H247.678V147ZM247.678 47.8V43.8H243.678V47.8H247.678ZM263.278 47.8H267.278V43.8H263.278V47.8ZM263.278 58.6H259.278V62.6H263.278V58.6ZM265.678 58.6V62.6H268.459L269.428 59.9927L265.678 58.6ZM273.278 48.4L275.434 51.7691L275.481 51.739L275.527 51.7077L273.278 48.4ZM296.878 48.8L294.331 51.8838L294.363 51.9103L294.395 51.9362L296.878 48.8ZM303.478 58.6L299.647 59.7494L300.502 62.6H303.478V58.6ZM305.878 58.6V62.6H308.35L309.456 60.3888L305.878 58.6ZM344.678 52.2L341.605 54.7607L341.644 54.807L341.684 54.8521L344.678 52.2ZM350.878 143H335.278V151H350.878V143ZM339.278 147V75.8H331.278V147H339.278ZM339.278 75.8C339.278 70.5307 338.07 65.8375 335.313 62.0473L328.843 66.7527C330.353 68.8292 331.278 71.736 331.278 75.8H339.278ZM335.362 62.1157C332.293 57.7045 327.487 55.8 321.878 55.8V63.8C325.602 63.8 327.597 64.9622 328.795 66.6843L335.362 62.1157ZM321.878 55.8C316.311 55.8 311.585 57.9779 308.015 62.2272L314.141 67.3728C316.172 64.9554 318.645 63.8 321.878 63.8V55.8ZM308.005 62.2393C304.463 66.4905 303.078 72.6147 303.078 79.8H311.078C311.078 73.3853 312.36 69.5095 314.151 67.3607L308.005 62.2393ZM303.078 79.8V147H311.078V79.8H303.078ZM307.078 143H291.478V151H307.078V143ZM295.478 147V75H287.478V147H295.478ZM295.478 75C295.478 69.8384 294.052 65.2562 290.915 61.5968L284.841 66.8032C286.505 68.7438 287.478 71.3616 287.478 75H295.478ZM290.974 61.667C287.767 57.7476 283.401 55.8 278.278 55.8V63.8C281.155 63.8 283.189 64.7857 284.782 66.7329L290.974 61.667ZM278.278 55.8C272.375 55.8 267.412 58.0048 263.908 62.5612L270.249 67.4388C272.077 65.0618 274.581 63.8 278.278 63.8V55.8ZM263.849 62.6399C260.681 66.9739 259.278 72.409 259.278 78.6H267.278C267.278 73.5909 268.408 69.9595 270.308 67.3601L263.849 62.6399ZM259.278 78.6V147H267.278V78.6H259.278ZM263.278 143H247.678V151H263.278V143ZM251.678 147V47.8H243.678V147H251.678ZM247.678 51.8H263.278V43.8H247.678V51.8ZM259.278 47.8V58.6H267.278V47.8H259.278ZM263.278 62.6H265.678V54.6H263.278V62.6ZM269.428 59.9927C270.938 55.9276 273.003 53.325 275.434 51.7691L271.122 45.0309C266.886 47.7417 263.885 51.9391 261.928 57.2072L269.428 59.9927ZM275.527 51.7077C278.116 49.9471 281.243 49 285.078 49V41C279.846 41 275.106 42.3196 271.029 45.0923L275.527 51.7077ZM285.078 49C289.148 49 292.121 50.0586 294.331 51.8838L299.426 45.7162C295.502 42.4748 290.608 41 285.078 41V49ZM294.395 51.9362C296.937 53.9485 298.676 56.5147 299.647 59.7494L307.309 57.4506C305.88 52.6853 303.219 48.7181 299.361 45.6638L294.395 51.9362ZM303.478 62.6H305.878V54.6H303.478V62.6ZM309.456 60.3888C311.458 56.3836 313.938 53.5929 316.809 51.7849C319.675 49.9809 323.176 49 327.478 49V41C321.913 41 316.882 42.2858 312.547 45.0151C308.218 47.7404 304.831 51.7497 302.3 56.8111L309.456 60.3888ZM327.478 49C334.013 49 338.515 51.0524 341.605 54.7607L347.751 49.6393C342.841 43.7475 335.876 41 327.478 41V49ZM341.684 54.8521C345.035 58.6354 346.878 63.7533 346.878 70.6H354.878C354.878 62.2467 352.588 55.0979 347.672 49.5479L341.684 54.8521ZM346.878 70.6V147H354.878V70.6H346.878ZM389.339 102.2V98.2H385.174L385.342 102.362L389.339 102.2ZM398.539 126L401.431 123.237L401.431 123.237L398.539 126ZM443.539 129L441.166 125.78L441.124 125.811L441.083 125.843L443.539 129ZM449.539 122.6L446.157 120.464L446.141 120.489L446.126 120.514L449.539 122.6ZM453.339 114.6L454.383 110.739L450.738 109.754L449.544 113.335L453.339 114.6ZM468.139 118.6L471.966 119.765L473.168 115.816L469.183 114.739L468.139 118.6ZM452.539 141.2L454.975 144.373L454.983 144.366L452.539 141.2ZM402.539 146.2L400.953 149.872L401.003 149.894L401.054 149.914L402.539 146.2ZM387.339 135.6L384.426 138.341L384.426 138.341L387.339 135.6ZM377.339 119.4L381.074 117.969L381.074 117.969L377.339 119.4ZM377.339 74.4L373.654 72.8441L373.639 72.8791L373.625 72.9144L377.339 74.4ZM387.739 59L390.524 61.8716L390.546 61.8502L390.567 61.8284L387.739 59ZM403.139 48.8L404.654 52.5022L404.674 52.4937L404.695 52.485L403.139 48.8ZM443.539 49.6L441.686 53.1449L441.734 53.1699L441.782 53.1935L443.539 49.6ZM458.139 60.6L455.089 63.1879L455.111 63.2144L455.134 63.2405L458.139 60.6ZM466.539 75L462.744 76.2649L462.759 76.3084L462.774 76.3515L466.539 75ZM469.339 102.2V106.2H473.339V102.2H469.339ZM410.139 62L411.484 65.767L411.521 65.7538L411.558 65.74L410.139 62ZM400.139 67.8L397.525 64.7727L397.49 64.8029L397.455 64.8339L400.139 67.8ZM393.139 76.8L389.617 74.9036L389.604 74.929L389.59 74.9546L393.139 76.8ZM389.739 87.8L385.774 87.2713L385.17 91.8H389.739V87.8ZM453.739 87.8V91.8H457.997L457.731 87.5505L453.739 87.8ZM450.539 76.2L446.961 77.9889L446.988 78.043L447.017 78.0964L450.539 76.2ZM443.539 67.4L440.936 70.437L440.971 70.4668L441.006 70.4958L443.539 67.4ZM433.739 61.8L432.35 65.551L432.372 65.5591L432.394 65.567L433.739 61.8ZM385.342 102.362C385.774 113.007 389.118 121.931 395.647 128.763L401.431 123.237C396.494 118.069 393.704 111.126 393.336 102.038L385.342 102.362ZM395.647 128.763C402.307 135.733 411.457 139 422.539 139V131C413.088 131 406.238 128.267 401.431 123.237L395.647 128.763ZM422.539 139C427.496 139 431.977 138.435 435.915 137.223L433.563 129.577C430.568 130.498 426.915 131 422.539 131V139ZM435.915 137.223C439.758 136.041 443.146 134.373 445.995 132.157L441.083 125.843C439.132 127.36 436.653 128.626 433.563 129.577L435.915 137.223ZM445.912 132.22C448.813 130.083 451.185 127.577 452.952 124.686L446.126 120.514C444.96 122.423 443.332 124.184 441.166 125.78L445.912 132.22ZM452.921 124.736C454.691 121.934 456.097 118.975 457.134 115.865L449.544 113.335C448.715 115.825 447.588 118.199 446.157 120.464L452.921 124.736ZM452.295 118.461L467.095 122.461L469.183 114.739L454.383 110.739L452.295 118.461ZM464.312 117.435C461.754 125.842 457.036 132.675 450.095 138.034L454.983 144.366C463.242 137.991 468.924 129.758 471.966 119.765L464.312 117.435ZM450.103 138.027C443.548 143.06 434.371 145.8 422.139 145.8V153.8C435.507 153.8 446.596 150.806 454.975 144.373L450.103 138.027ZM422.139 145.8C415.534 145.8 409.51 144.68 404.025 142.486L401.054 149.914C407.568 152.52 414.611 153.8 422.139 153.8V145.8ZM404.125 142.528C398.746 140.205 394.134 136.984 390.252 132.859L384.426 138.341C389.077 143.283 394.599 147.128 400.953 149.872L404.125 142.528ZM390.252 132.859C386.369 128.733 383.303 123.788 381.074 117.969L373.604 120.831C376.175 127.545 379.776 133.4 384.426 138.341L390.252 132.859ZM381.074 117.969C378.871 112.216 377.739 105.775 377.739 98.6H369.739C369.739 106.625 371.007 114.051 373.604 120.831L381.074 117.969ZM377.739 98.6V93.8H369.739V98.6H377.739ZM377.739 93.8C377.739 87.3381 378.855 81.3795 381.053 75.8856L373.625 72.9144C371.023 79.4205 369.739 86.3952 369.739 93.8H377.739ZM381.024 75.9559C383.362 70.419 386.533 65.7415 390.524 61.8716L384.954 56.1284C380.145 60.7918 376.383 66.381 373.654 72.8441L381.024 75.9559ZM390.567 61.8284C394.585 57.8111 399.269 54.7049 404.654 52.5022L401.625 45.0978C395.276 47.6951 389.693 51.3888 384.911 56.1716L390.567 61.8284ZM404.695 52.485C410.171 50.1727 416.105 49 422.539 49V41C415.106 41 408.107 42.3606 401.583 45.115L404.695 52.485ZM422.539 49C430.172 49 436.508 50.438 441.686 53.1449L445.392 46.0551C438.837 42.6287 431.172 41 422.539 41V49ZM441.782 53.1935C447.364 55.9223 451.765 59.2698 455.089 63.1879L461.189 58.0121C457.047 53.1302 451.714 49.1443 445.296 46.0065L441.782 53.1935ZM455.134 63.2405C458.673 67.2672 461.191 71.6057 462.744 76.2649L470.334 73.7351C468.42 67.9943 465.338 62.7328 461.144 57.9595L455.134 63.2405ZM462.774 76.3515C464.523 81.2241 465.339 85.5614 465.339 89.4H473.339C473.339 84.4386 472.288 79.1759 470.304 73.6485L462.774 76.3515ZM465.339 89.4V102.2H473.339V89.4H465.339ZM469.339 98.2H389.339V106.2H469.339V98.2ZM422.539 55.8C417.686 55.8 413.069 56.6107 408.72 58.26L411.558 65.74C414.943 64.456 418.593 63.8 422.539 63.8V55.8ZM408.794 58.233C404.606 59.7286 400.84 61.9092 397.525 64.7727L402.754 70.8273C405.305 68.6242 408.205 66.9381 411.484 65.767L408.794 58.233ZM397.455 64.8339C394.303 67.6863 391.691 71.0525 389.617 74.9036L396.661 78.6964C398.321 75.6142 400.375 72.9804 402.823 70.7661L397.455 64.8339ZM389.59 74.9546C387.628 78.7289 386.364 82.8458 385.774 87.2713L393.704 88.3287C394.181 84.7542 395.184 81.5377 396.688 78.6454L389.59 74.9546ZM389.739 91.8H453.739V83.8H389.739V91.8ZM457.731 87.5505C457.432 82.7575 456.224 78.3213 454.061 74.3036L447.017 78.0964C448.587 81.0121 449.513 84.3092 449.747 88.0495L457.731 87.5505ZM454.117 74.4111C452.137 70.4518 449.452 67.0695 446.072 64.3042L441.006 70.4958C443.493 72.5305 445.474 75.0149 446.961 77.9889L454.117 74.4111ZM446.142 64.363C442.944 61.6217 439.243 59.5184 435.084 58.033L432.394 65.567C435.701 66.7483 438.534 68.3783 440.936 70.437L446.142 64.363ZM435.128 58.049C431.08 56.5498 426.876 55.8 422.539 55.8V63.8C425.935 63.8 429.198 64.3836 432.35 65.551L435.128 58.049ZM502 6.99999V2.99999H498V6.99999H502ZM588 6.99999H592V2.99999H588V6.99999ZM588 22.6V26.6H592V22.6H588ZM518.8 22.6V18.6H514.8V22.6H518.8ZM518.8 69H514.8V73H518.8V69ZM586.8 69H590.8V65H586.8V69ZM586.8 84.6V88.6H590.8V84.6H586.8ZM518.8 84.6V80.6H514.8V84.6H518.8ZM518.8 147V151H522.8V147H518.8ZM502 147H498V151H502V147ZM502 11H588V2.99999H502V11ZM584 6.99999V22.6H592V6.99999H584ZM588 18.6H518.8V26.6H588V18.6ZM514.8 22.6V69H522.8V22.6H514.8ZM518.8 73H586.8V65H518.8V73ZM582.8 69V84.6H590.8V69H582.8ZM586.8 80.6H518.8V88.6H586.8V80.6ZM514.8 84.6V147H522.8V84.6H514.8ZM518.8 143H502V151H518.8V143ZM506 147V6.99999H498V147H506ZM622.861 132.6V128.6H618.861V132.6H622.861ZM658.861 132.6V136.6H662.861V132.6H658.861ZM658.861 21.4H662.861V17.4H658.861V21.4ZM624.061 21.4H620.061V25.4H624.061V21.4ZM624.061 6.99999V2.99999H620.061V6.99999H624.061ZM674.461 6.99999H678.461V2.99999H674.461V6.99999ZM674.461 132.6H670.461V136.6H674.461V132.6ZM710.461 132.6H714.461V128.6H710.461V132.6ZM710.461 147V151H714.461V147H710.461ZM622.861 147H618.861V151H622.861V147ZM622.861 136.6H658.861V128.6H622.861V136.6ZM662.861 132.6V21.4H654.861V132.6H662.861ZM658.861 17.4H624.061V25.4H658.861V17.4ZM628.061 21.4V6.99999H620.061V21.4H628.061ZM624.061 11H674.461V2.99999H624.061V11ZM670.461 6.99999V132.6H678.461V6.99999H670.461ZM674.461 136.6H710.461V128.6H674.461V136.6ZM706.461 132.6V147H714.461V132.6H706.461ZM710.461 143H622.861V151H710.461V143ZM626.861 147V132.6H618.861V147H626.861ZM834.722 120.6L831.057 118.997L831.049 119.015L831.041 119.034L834.722 120.6ZM823.922 136.6L826.663 139.513L826.686 139.492L826.708 139.47L823.922 136.6ZM807.922 146.4L806.535 142.648L806.522 142.653L806.508 142.658L807.922 146.4ZM770.122 146.4L768.708 150.142L770.122 146.4ZM754.322 136.6L751.536 139.47L751.558 139.492L751.58 139.513L754.322 136.6ZM743.322 120.6L739.63 122.138L739.649 122.185L739.67 122.232L743.322 120.6ZM743.322 74.6L739.657 72.9967L739.649 73.0152L739.641 73.0338L743.322 74.6ZM754.322 58.4L751.578 55.4896L751.557 55.5095L751.536 55.5297L754.322 58.4ZM770.322 48.4L771.735 52.1419L771.735 52.1419L770.322 48.4ZM807.922 48.4L806.508 52.1419L806.508 52.1419L807.922 48.4ZM823.722 58.4L820.936 61.2703L820.957 61.2905L820.978 61.3104L823.722 58.4ZM834.722 74.6L831.03 76.1385L831.049 76.1854L831.07 76.2318L834.722 74.6ZM802.322 132.6L803.807 136.314L803.838 136.302L803.869 136.289L802.322 132.6ZM813.122 125.2L810.234 122.432L810.234 122.432L813.122 125.2ZM820.322 113.8L824.044 115.266L824.051 115.247L824.058 115.229L820.322 113.8ZM820.322 81.6L816.586 83.0285L816.593 83.0474L816.6 83.0661L820.322 81.6ZM802.322 62.6L800.676 66.2455L800.725 66.2678L800.775 66.2888L802.322 62.6ZM775.922 62.6L777.469 66.2888L777.519 66.2678L777.568 66.2455L775.922 62.6ZM757.922 81.6L761.644 83.0661L761.651 83.0474L761.658 83.0285L757.922 81.6ZM757.922 113.8L754.186 115.229L754.193 115.247L754.2 115.266L757.922 113.8ZM765.122 125.2L768.01 122.432L768.01 122.432L765.122 125.2ZM775.722 132.6L774.131 136.27L774.204 136.302L774.278 136.33L775.722 132.6ZM834.922 98.6C834.922 106.415 833.599 113.186 831.057 118.997L838.387 122.203C841.444 115.214 842.922 107.319 842.922 98.6H834.922ZM831.041 119.034C828.567 124.849 825.258 129.729 821.136 133.73L826.708 139.47C831.652 134.671 835.544 128.884 838.403 122.166L831.041 119.034ZM821.18 133.687C817.057 137.568 812.191 140.558 806.535 142.648L809.308 150.152C815.919 147.709 821.72 144.166 826.663 139.513L821.18 133.687ZM806.508 142.658C800.969 144.751 795.181 145.8 789.122 145.8V153.8C796.129 153.8 802.875 152.582 809.335 150.142L806.508 142.658ZM789.122 145.8C782.919 145.8 777.066 144.747 771.535 142.658L768.708 150.142C775.178 152.586 781.992 153.8 789.122 153.8V145.8ZM771.535 142.658C766.013 140.572 761.201 137.582 757.063 133.687L751.58 139.513C756.509 144.152 762.231 147.695 768.708 150.142L771.535 142.658ZM757.108 133.73C752.97 129.713 749.585 124.811 746.974 118.968L739.67 122.232C742.659 128.922 746.607 134.687 751.536 139.47L757.108 133.73ZM747.014 119.062C744.586 113.233 743.322 106.438 743.322 98.6H735.322C735.322 107.295 736.725 115.167 739.63 122.138L747.014 119.062ZM743.322 98.6V96.2H735.322V98.6H743.322ZM743.322 96.2C743.322 88.5023 744.583 81.8512 747.002 76.1662L739.641 73.0338C736.727 79.8821 735.322 87.631 735.322 96.2H743.322ZM746.987 76.2033C749.601 70.2283 752.984 65.2725 757.108 61.2703L751.536 55.5297C746.593 60.3274 742.643 66.1717 739.657 72.9967L746.987 76.2033ZM757.066 61.3104C761.348 57.2726 766.23 54.2219 771.735 52.1419L768.908 44.6581C762.414 47.1114 756.629 50.7274 751.578 55.4896L757.066 61.3104ZM771.735 52.1419C777.275 50.0491 783.062 49 789.122 49V41C782.115 41 775.369 42.2176 768.908 44.6581L771.735 52.1419ZM789.122 49C795.181 49 800.969 50.0491 806.508 52.1419L809.335 44.6581C802.875 42.2176 796.129 41 789.122 41V49ZM806.508 52.1419C812.004 54.2181 816.802 57.2577 820.936 61.2703L826.508 55.5297C821.575 50.7423 815.84 47.1153 809.335 44.6581L806.508 52.1419ZM820.978 61.3104C825.203 65.2943 828.561 70.2147 831.03 76.1385L838.414 73.0615C835.549 66.1853 831.574 60.3057 826.466 55.4896L820.978 61.3104ZM831.07 76.2318C833.602 81.8989 834.922 88.5264 834.922 96.2H842.922C842.922 87.6069 841.442 79.8344 838.374 72.9682L831.07 76.2318ZM834.922 96.2V98.6H842.922V96.2H834.922ZM789.122 139C794.373 139 799.284 138.123 803.807 136.314L800.836 128.886C797.36 130.277 793.471 131 789.122 131V139ZM803.869 136.289C808.502 134.346 812.56 131.568 816.01 127.968L810.234 122.432C807.551 125.232 804.409 127.387 800.775 128.911L803.869 136.289ZM816.01 127.968C819.46 124.367 822.132 120.117 824.044 115.266L816.6 112.334C815.045 116.283 812.917 119.633 810.234 122.432L816.01 127.968ZM824.058 115.229C825.99 110.175 826.922 104.614 826.922 98.6H818.922C818.922 103.786 818.12 108.359 816.586 112.371L824.058 115.229ZM826.922 98.6V96.2H818.922V98.6H826.922ZM826.922 96.2C826.922 90.4286 825.983 85.0567 824.044 80.1339L816.6 83.0661C818.128 86.9433 818.922 91.3048 818.922 96.2H826.922ZM824.058 80.1714C822.152 75.1873 819.479 70.8529 816.01 67.2324L810.234 72.7676C812.898 75.5471 815.025 78.946 816.586 83.0285L824.058 80.1714ZM816.01 67.2324C812.56 63.6321 808.502 60.854 803.869 58.9112L800.775 66.2888C804.409 67.8126 807.551 69.9679 810.234 72.7676L816.01 67.2324ZM803.968 58.9545C799.302 56.8473 794.339 55.8 789.122 55.8V63.8C793.238 63.8 797.075 64.6193 800.676 66.2455L803.968 58.9545ZM789.122 55.8C783.904 55.8 778.941 56.8473 774.276 58.9545L777.568 66.2455C781.169 64.6193 785.006 63.8 789.122 63.8V55.8ZM774.375 58.9112C769.742 60.854 765.684 63.6321 762.234 67.2324L768.01 72.7676C770.693 69.9679 773.835 67.8126 777.469 66.2888L774.375 58.9112ZM762.234 67.2324C758.764 70.8529 756.091 75.1873 754.186 80.1714L761.658 83.0285C763.219 78.946 765.346 75.5471 768.01 72.7676L762.234 67.2324ZM754.2 80.1339C752.261 85.0567 751.322 90.4286 751.322 96.2H759.322C759.322 91.3048 760.116 86.9433 761.644 83.0661L754.2 80.1339ZM751.322 96.2V98.6H759.322V96.2H751.322ZM751.322 98.6C751.322 104.614 752.253 110.175 754.186 115.229L761.658 112.371C760.124 108.359 759.322 103.786 759.322 98.6H751.322ZM754.2 115.266C756.111 120.117 758.784 124.367 762.234 127.968L768.01 122.432C765.327 119.633 763.199 116.283 761.644 112.334L754.2 115.266ZM762.234 127.968C765.662 131.545 769.635 134.322 774.131 136.27L777.312 128.93C773.809 127.412 770.715 125.255 768.01 122.432L762.234 127.968ZM774.278 136.33C778.909 138.123 783.869 139 789.122 139V131C784.775 131 780.802 130.277 777.166 128.87L774.278 136.33ZM953.583 147V151H957.003L957.534 147.621L953.583 147ZM924.783 147L920.816 147.517L921.271 151H924.783V147ZM912.783 55L916.749 54.4826L916.295 51H912.783V55ZM910.383 55V51H906.871L906.416 54.4826L910.383 55ZM898.383 147V151H901.895L902.349 147.517L898.383 147ZM869.583 147L865.631 147.621L866.163 151H869.583V147ZM853.983 47.8V43.8H849.305L850.031 48.4214L853.983 47.8ZM869.983 47.8L873.942 47.2319L873.45 43.8H869.983V47.8ZM883.183 139.8L879.223 140.368L879.716 143.8H883.183V139.8ZM885.583 139.8V143.8H889.11L889.551 140.3L885.583 139.8ZM897.183 47.8V43.8H893.655L893.214 47.2996L897.183 47.8ZM925.983 47.8L929.951 47.2996L929.51 43.8H925.983V47.8ZM937.583 139.8L933.614 140.3L934.055 143.8H937.583V139.8ZM939.983 139.8V143.8H943.45L943.942 140.368L939.983 139.8ZM953.183 47.8V43.8H949.716L949.223 47.2319L953.183 47.8ZM969.183 47.8L973.134 48.4214L973.861 43.8H969.183V47.8ZM953.583 143H924.783V151H953.583V143ZM928.749 146.483L916.749 54.4826L908.816 55.5174L920.816 147.517L928.749 146.483ZM912.783 51H910.383V59H912.783V51ZM906.416 54.4826L894.416 146.483L902.349 147.517L914.349 55.5174L906.416 54.4826ZM898.383 143H869.583V151H898.383V143ZM873.534 146.379L857.934 47.1786L850.031 48.4214L865.631 147.621L873.534 146.379ZM853.983 51.8H869.983V43.8H853.983V51.8ZM866.023 48.3681L879.223 140.368L887.142 139.232L873.942 47.2319L866.023 48.3681ZM883.183 143.8H885.583V135.8H883.183V143.8ZM889.551 140.3L901.151 48.3004L893.214 47.2996L881.614 139.3L889.551 140.3ZM897.183 51.8H925.983V43.8H897.183V51.8ZM922.014 48.3004L933.614 140.3L941.551 139.3L929.951 47.2996L922.014 48.3004ZM937.583 143.8H939.983V135.8H937.583V143.8ZM943.942 140.368L957.142 48.3681L949.223 47.2319L936.023 139.232L943.942 140.368ZM953.183 51.8H969.183V43.8H953.183V51.8ZM965.231 47.1786L949.631 146.379L957.534 147.621L973.134 48.4214L965.231 47.1786Z" fill="black"/>
</svg>
