<svg width="1005" height="182" viewBox="0 0 1005 182" fill="none" xmlns="http://www.w3.org/2000/svg">
<g filter="url(#filter0_d)">
<path d="M56.1563 84.2H116.156V155H92.1563V139.4H88.5563C86.9563 144.6 83.8896 149 79.3563 152.6C74.8229 156.067 68.0229 157.8 58.9563 157.8C52.5563 157.8 46.5563 156.6 40.9563 154.2C35.3563 151.8 30.4896 148.267 26.3563 143.6C22.2229 138.8 18.9563 132.933 16.5563 126C14.1563 118.933 12.9563 110.733 12.9563 101.4V68.6C12.9563 59.5333 14.2229 51.5333 16.7563 44.6C19.4229 37.5333 23.0229 31.6 27.5563 26.8C32.2229 22 37.7563 18.4 44.1563 16C50.5563 13.4667 57.6229 12.2 65.3563 12.2C73.3563 12.2 80.4896 13.5333 86.7563 16.2C93.0229 18.7333 98.3563 22.3333 102.756 27C107.156 31.5333 110.49 36.9333 112.756 43.2C115.023 49.3333 116.156 55.9333 116.156 63V65.4H89.7563V63C89.7563 54.6 87.5563 48.2667 83.1563 44C78.8896 39.6 72.8229 37.4 64.9563 37.4C57.4896 37.4 51.3563 39.9333 46.5563 45C41.7563 49.9333 39.3563 58.4667 39.3563 70.6V100.2C39.3563 121.8 48.1563 132.6 65.7563 132.6C73.6229 132.6 79.5563 130.533 83.5563 126.4C87.6896 122.133 89.7563 116.467 89.7563 109.4H56.1563V84.2ZM206.417 140.6C203.751 146.867 200.017 151.333 195.217 154C190.417 156.533 184.817 157.8 178.417 157.8C172.417 157.8 166.751 156.667 161.417 154.4C156.217 152.133 151.617 148.8 147.617 144.4C143.617 140 140.417 134.667 138.017 128.4C135.751 122.133 134.617 115 134.617 107V103.8C134.617 95.9333 135.751 88.8667 138.017 82.6C140.284 76.3333 143.351 71 147.217 66.6C151.084 62.2 155.551 58.8667 160.617 56.6C165.817 54.2 171.351 53 177.217 53C184.284 53 189.951 54.2 194.217 56.6C198.617 59 202.084 62.7333 204.617 67.8H208.217V55.8H233.417V125C233.417 129 235.217 131 238.817 131H242.617V155H225.417C220.884 155 217.151 153.667 214.217 151C211.417 148.333 210.017 144.867 210.017 140.6H206.417ZM184.017 133.8C191.351 133.8 197.217 131.4 201.617 126.6C206.017 121.667 208.217 115 208.217 106.6V104.2C208.217 95.8 206.017 89.2 201.617 84.4C197.217 79.4667 191.351 77 184.017 77C176.684 77 170.817 79.4667 166.417 84.4C162.017 89.2 159.817 95.8 159.817 104.2V106.6C159.817 115 162.017 121.667 166.417 126.6C170.817 131.4 176.684 133.8 184.017 133.8ZM364.278 155H339.078V85.4C339.078 82.6 338.345 80.5333 336.878 79.2C335.545 77.7333 333.745 77 331.478 77C328.811 77 326.678 77.8 325.078 79.4C323.611 81 322.878 83.4 322.878 86.6V155H297.678V85.4C297.678 82.6 296.878 80.5333 295.278 79.2C293.811 77.7333 292.011 77 289.878 77C287.478 77 285.478 77.8 283.878 79.4C282.278 81 281.478 83.4 281.478 86.6V155H256.278V55.8H281.478V65.4H285.078C285.878 61.8 287.678 58.8667 290.478 56.6C293.411 54.2 297.211 53 301.878 53C306.278 53 310.011 54.2 313.078 56.6C316.145 58.8667 318.211 61.8 319.278 65.4H322.878C323.945 61.8 326.145 58.8667 329.478 56.6C332.945 54.2 337.211 53 342.278 53C348.945 53 354.278 55.2667 358.278 59.8C362.278 64.2 364.278 70.3333 364.278 78.2V155ZM409.339 113.6C409.472 116.533 410.139 119.267 411.339 121.8C412.672 124.2 414.406 126.333 416.539 128.2C418.806 129.933 421.339 131.333 424.139 132.4C427.072 133.333 430.139 133.8 433.339 133.8C439.606 133.8 444.406 132.733 447.739 130.6C451.072 128.333 453.472 125.667 454.939 122.6L476.539 134.6C475.339 137.133 473.672 139.8 471.539 142.6C469.406 145.267 466.606 147.733 463.139 150C459.806 152.267 455.672 154.133 450.739 155.6C445.939 157.067 440.272 157.8 433.739 157.8C426.272 157.8 419.472 156.6 413.339 154.2C407.206 151.8 401.872 148.333 397.339 143.8C392.939 139.267 389.472 133.733 386.939 127.2C384.539 120.667 383.339 113.267 383.339 105V103.8C383.339 96.2 384.606 89.2667 387.139 83C389.806 76.7333 393.406 71.4 397.939 67C402.472 62.6 407.739 59.2 413.739 56.8C419.872 54.2667 426.406 53 433.339 53C441.872 53 449.206 54.5333 455.339 57.6C461.472 60.5333 466.539 64.3333 470.539 69C474.539 73.5333 477.472 78.6 479.339 84.2C481.206 89.6667 482.139 95 482.139 100.2V113.6H409.339ZM433.139 75.8C426.739 75.8 421.539 77.4667 417.539 80.8C413.539 84 410.939 87.7333 409.739 92H456.539C455.739 87.3333 453.206 83.4667 448.939 80.4C444.806 77.3333 439.539 75.8 433.139 75.8ZM511.6 15H601.2V40.2H538V72.2H600V97.4H538V155H511.6V15ZM631.461 131H666.261V39H632.661V15H691.461V131H723.861V155H631.461V131ZM851.722 106.6C851.722 114.867 850.322 122.2 847.522 128.6C844.722 134.867 840.922 140.2 836.122 144.6C831.322 148.867 825.789 152.133 819.522 154.4C813.389 156.667 806.922 157.8 800.122 157.8C793.322 157.8 786.789 156.667 780.522 154.4C774.389 152.133 768.922 148.867 764.122 144.6C759.322 140.2 755.522 134.867 752.722 128.6C749.922 122.2 748.522 114.867 748.522 106.6V104.2C748.522 96.0667 749.922 88.8667 752.722 82.6C755.522 76.2 759.322 70.8 764.122 66.4C768.922 62 774.389 58.6667 780.522 56.4C786.789 54.1333 793.322 53 800.122 53C806.922 53 813.389 54.1333 819.522 56.4C825.789 58.6667 831.322 62 836.122 66.4C840.922 70.8 844.722 76.2 847.522 82.6C850.322 88.8667 851.722 96.0667 851.722 104.2V106.6ZM800.122 133.8C803.722 133.8 807.122 133.2 810.322 132C813.522 130.8 816.322 129.067 818.722 126.8C821.122 124.533 822.989 121.8 824.322 118.6C825.789 115.267 826.522 111.533 826.522 107.4V103.4C826.522 99.2667 825.789 95.6 824.322 92.4C822.989 89.0667 821.122 86.2667 818.722 84C816.322 81.7333 813.522 80 810.322 78.8C807.122 77.6 803.722 77 800.122 77C796.522 77 793.122 77.6 789.922 78.8C786.722 80 783.922 81.7333 781.522 84C779.122 86.2667 777.189 89.0667 775.722 92.4C774.389 95.6 773.722 99.2667 773.722 103.4V107.4C773.722 111.533 774.389 115.267 775.722 118.6C777.189 121.8 779.122 124.533 781.522 126.8C783.922 129.067 786.722 130.8 789.922 132C793.122 133.2 796.522 133.8 800.122 133.8ZM974.183 155H930.583L924.983 79.8V67.8H920.183V79.8L914.583 155H870.983L864.383 55.8H887.583L891.983 131V143H896.783V131L901.783 55.8H943.383L948.383 131V143H953.183V131L957.583 55.8H980.783L974.183 155Z" fill="white"/>
</g>
<defs>
<filter id="filter0_d" x="0.956299" y="0.200195" width="1003.83" height="181.6" filterUnits="userSpaceOnUse" color-interpolation-filters="sRGB">
<feFlood flood-opacity="0" result="BackgroundImageFix"/>
<feColorMatrix in="SourceAlpha" type="matrix" values="0 0 0 0 0 0 0 0 0 0 0 0 0 0 0 0 0 0 127 0"/>
<feOffset dx="6" dy="6"/>
<feGaussianBlur stdDeviation="9"/>
<feColorMatrix type="matrix" values="0 0 0 0 0 0 0 0 0 0 0 0 0 0 0 0 0 0 0.61 0"/>
<feBlend mode="normal" in2="BackgroundImageFix" result="effect1_dropShadow"/>
<feBlend mode="normal" in="SourceGraphic" in2="effect1_dropShadow" result="shape"/>
</filter>
</defs>
</svg>
